ffmpeg started on 2025-06-10 at 19:55:51
Report written to "D:\Convert\FFMetrics\reports\psnr_report-6.txt"
Log level: 32
Command line:
ffmpeg -hide_banner -nostdin -i "G:\\\xc0\xed\xe8\xec\xe5\\[\xd2\xee\xef-5]\\\xcd\xe5 \xec\xee\xff \xe2\xe8\xed\xe0, \xf7\xf2\xee \xff \xed\xe5 \xef\xee\xef\xf3\xeb\xff\xf0\xed\xe0!\\[AniDub]_Watashi_ga_Motenai_no_wa_Dou_Kangaete_mo_Omaera_ga_Warui_[09]_[720p_x264_aac]_[BalFor_Shina]_HEVC.mkv" -i "G:\\\xc0\xed\xe8\xec\xe5\\[\xd2\xee\xef-5]\\\xcd\xe5 \xec\xee\xff \xe2\xe8\xed\xe0, \xf7\xf2\xee \xff \xed\xe5 \xef\xee\xef\xf3\xeb\xff\xf0\xed\xe0!\\[AniDub]_Watashi_ga_Motenai_no_wa_Dou_Kangaete_mo_Omaera_ga_Warui_[09]_[720p_x264_aac]_[BalFor_Shina].mp4" -lavfi "[0:v]settb=AVTB,setpts=PTS-STARTPTS,format=pix_fmts=yuv420p10,fps=24000/1001,scale=1280:720:flags=bicubic[main];[1:v]settb=AVTB,setpts=PTS-STARTPTS,format=pix_fmts=yuv420p,fps=24000/1001,scale=1280:720:flags=bicubic[ref];[main][ref]psnr=eof_action=endall:stats_file='D\\:/Convert/FFMetrics/logs/psnr_logfile-6.txt'" -f null -
Input #0, matroska,webm, from 'G:\Аниме\[Топ-5]\Не моя вина, что я не популярна!\[AniDub]_Watashi_ga_Motenai_no_wa_Dou_Kangaete_mo_Omaera_ga_Warui_[09]_[720p_x264_aac]_[BalFor_Shina]_HEVC.mkv':
  Metadata:
    COMPATIBLE_BRANDS: isom
    MAJOR_BRAND     : isom
    MINOR_VERSION   : 1
    ENCODER         : Lavf61.7.100
  Duration: 00:24:15.04, start: 0.000000, bitrate: 717 kb/s
  Stream #0:0: Video: hevc (Main 10), yuv420p10le(tv, bt709, progressive), 1280x720 [SAR 1:1 DAR 16:9], 23.98 fps, 23.98 tbr, 1k tbn (default)
      Metadata:
        HANDLER_NAME    : www.AniDub.com
        VENDOR_ID       : [0][0][0][0]
        ENCODER         : Lavc61.19.100 libx265
        BPS             : 519515
        DURATION        : 00:24:14.953708333
        NUMBER_OF_FRAMES: 34884
        NUMBER_OF_BYTES : 94483849
        _STATISTICS_WRITING_APP: mkvpropedit v66.0.0 ('Josie') 64-bit
        _STATISTICS_WRITING_DATE_UTC: 2025-06-10 16:10:25
        _STATISTICS_TAGS: BPS DURATION NUMBER_OF_FRAMES NUMBER_OF_BYTES
  Stream #0:1(rus): Audio: aac (LC), 48000 Hz, stereo, fltp (default)
      Metadata:
        HANDLER_NAME    : GPAC ISO Audio Handler
        VENDOR_ID       : [0][0][0][0]
        ENCODER         : Lavc61.19.100 aac
        BPS             : 194049
        DURATION        : 00:24:14.869000000
        NUMBER_OF_FRAMES: 68198
        NUMBER_OF_BYTES : 35289555
        _STATISTICS_WRITING_APP: mkvpropedit v66.0.0 ('Josie') 64-bit
        _STATISTICS_WRITING_DATE_UTC: 2025-06-10 16:10:25
        _STATISTICS_TAGS: BPS DURATION NUMBER_OF_FRAMES NUMBER_OF_BYTES
Input #1, mov,mp4,m4a,3gp,3g2,mj2, from 'G:\Аниме\[Топ-5]\Не моя вина, что я не популярна!\[AniDub]_Watashi_ga_Motenai_no_wa_Dou_Kangaete_mo_Omaera_ga_Warui_[09]_[720p_x264_aac]_[BalFor_Shina].mp4':
  Metadata:
    major_brand     : isom
    minor_version   : 1
    compatible_brands: isom
    creation_time   : 2013-09-07T21:01:48.000000Z
    encoder         : Yamb 2.1.0.0 [http://yamb.unite-video.com]
  Duration: 00:24:15.04, start: 0.000000, bitrate: 1703 kb/s
  Stream #1:0[0x1](und): Video: h264 (High) (avc1 / 0x31637661), yuv420p(tv, bt709, progressive), 1280x720 [SAR 1:1 DAR 16:9], 1537 kb/s, 23.98 fps, 23.98 tbr, 24k tbn (default)
      Metadata:
        creation_time   : 2013-09-03T04:57:29.000000Z
        handler_name    : www.AniDub.com
        vendor_id       : [0][0][0][0]
  Stream #1:1[0x2](rus): Audio: aac (LC) (mp4a / 0x6134706D), 48000 Hz, stereo, fltp, 162 kb/s (default)
      Metadata:
        creation_time   : 2013-09-07T21:01:50.000000Z
        handler_name    : GPAC ISO Audio Handler
        vendor_id       : [0][0][0][0]
Stream mapping:
  Stream #0:0 (hevc) -> settb:default
  Stream #1:0 (h264) -> settb:default
  psnr:default -> Stream #0:0 (wrapped_avframe)
  Stream #0:1 -> #0:1 (aac (native) -> pcm_s16le (native))
Output #0, null, to 'pipe:':
  Metadata:
    COMPATIBLE_BRANDS: isom
    MAJOR_BRAND     : isom
    MINOR_VERSION   : 1
    encoder         : Lavf61.7.100
  Stream #0:0: Video: wrapped_avframe, yuv420p10le(tv, bt709, progressive), 1280x720 [SAR 1:1 DAR 16:9], q=2-31, 200 kb/s, 23.98 fps, 23.98 tbn
      Metadata:
        encoder         : Lavc61.19.100 wrapped_avframe
  Stream #0:1(rus): Audio: pcm_s16le, 48000 Hz, stereo, s16, 1536 kb/s (default)
      Metadata:
        HANDLER_NAME    : GPAC ISO Audio Handler
        VENDOR_ID       : [0][0][0][0]
        _STATISTICS_TAGS: BPS DURATION NUMBER_OF_FRAMES NUMBER_OF_BYTES
        BPS             : 194049
        DURATION        : 00:24:14.869000000
        NUMBER_OF_FRAMES: 68198
        NUMBER_OF_BYTES : 35289555
        _STATISTICS_WRITING_APP: mkvpropedit v66.0.0 ('Josie') 64-bit
        _STATISTICS_WRITING_DATE_UTC: 2025-06-10 16:10:25
        encoder         : Lavc61.19.100 pcm_s16le
frame=  521 fps=0.0 q=-0.0 size=N/A time=00:00:21.73 bitrate=N/A speed=42.4x    frame= 1167 fps=1124 q=-0.0 size=N/A time=00:00:48.67 bitrate=N/A speed=46.9x    frame= 1371 fps=886 q=-0.0 size=N/A time=00:00:57.18 bitrate=N/A speed=  37x    frame= 1683 fps=815 q=-0.0 size=N/A time=00:01:10.19 bitrate=N/A speed=  34x    frame= 1954 fps=755 q=-0.0 size=N/A time=00:01:21.49 bitrate=N/A speed=31.5x    frame= 2302 fps=739 q=-0.0 size=N/A time=00:01:36.05 bitrate=N/A speed=30.9x    frame= 2681 fps=740 q=-0.0 size=N/A time=00:01:51.82 bitrate=N/A speed=30.9x    frame= 3054 fps=737 q=-0.0 size=N/A time=00:02:07.37 bitrate=N/A speed=30.7x    frame= 3559 fps=763 q=-0.0 size=N/A time=00:02:28.43 bitrate=N/A speed=31.8x    frame= 4122 fps=796 q=-0.0 size=N/A time=00:02:51.92 bitrate=N/A speed=33.2x    frame= 4332 fps=762 q=-0.0 size=N/A time=00:03:00.68 bitrate=N/A speed=31.8x    frame= 4941 fps=796 q=-0.0 size=N/A time=00:03:26.08 bitrate=N/A speed=33.2x    frame= 5592 fps=831 q=-0.0 size=N/A time=00:03:53.23 bitrate=N/A speed=34.7x    frame= 6154 fps=851 q=-0.0 size=N/A time=00:04:16.67 bitrate=N/A speed=35.5x    frame= 6514 fps=840 q=-0.0 size=N/A time=00:04:31.68 bitrate=N/A speed=  35x    frame= 6929 fps=839 q=-0.0 size=N/A time=00:04:48.99 bitrate=N/A speed=  35x    frame= 7451 fps=848 q=-0.0 size=N/A time=00:05:10.76 bitrate=N/A speed=35.4x    frame= 7971 fps=857 q=-0.0 size=N/A time=00:05:32.45 bitrate=N/A speed=35.8x    frame= 8582 fps=874 q=-0.0 size=N/A time=00:05:57.94 bitrate=N/A speed=36.5x    frame= 9058 fps=877 q=-0.0 size=N/A time=00:06:17.79 bitrate=N/A speed=36.6x    frame= 9614 fps=886 q=-0.0 size=N/A time=00:06:40.98 bitrate=N/A speed=  37x    frame=10195 fps=898 q=-0.0 size=N/A time=00:07:05.21 bitrate=N/A speed=37.4x    frame=10776 fps=907 q=-0.0 size=N/A time=00:07:29.44 bitrate=N/A speed=37.8x    frame=11420 fps=922 q=-0.0 size=N/A time=00:07:56.30 bitrate=N/A speed=38.4x    frame=11941 fps=926 q=-0.0 size=N/A time=00:08:18.03 bitrate=N/A speed=38.6x    frame=12485 fps=930 q=-0.0 size=N/A time=00:08:40.72 bitrate=N/A speed=38.8x    frame=13034 fps=936 q=-0.0 size=N/A time=00:09:03.62 bitrate=N/A speed=  39x    frame=13593 fps=940 q=-0.0 size=N/A time=00:09:26.94 bitrate=N/A speed=39.2x    frame=14209 fps=949 q=-0.0 size=N/A time=00:09:52.63 bitrate=N/A speed=39.6x    frame=14814 fps=956 q=-0.0 size=N/A time=00:10:17.86 bitrate=N/A speed=39.9x    frame=15431 fps=964 q=-0.0 size=N/A time=00:10:43.60 bitrate=N/A speed=40.2x    frame=15892 fps=962 q=-0.0 size=N/A time=00:11:02.82 bitrate=N/A speed=40.1x    frame=16461 fps=967 q=-0.0 size=N/A time=00:11:26.56 bitrate=N/A speed=40.3x    frame=17086 fps=974 q=-0.0 size=N/A time=00:11:52.62 bitrate=N/A speed=40.6x    frame=17668 fps=978 q=-0.0 size=N/A time=00:12:16.90 bitrate=N/A speed=40.8x    frame=18280 fps=984 q=-0.0 size=N/A time=00:12:42.42 bitrate=N/A speed=  41x    frame=18880 fps=988 q=-0.0 size=N/A time=00:13:07.45 bitrate=N/A speed=41.2x    frame=19328 fps=985 q=-0.0 size=N/A time=00:13:26.13 bitrate=N/A speed=41.1x    frame=19802 fps=984 q=-0.0 size=N/A time=00:13:45.90 bitrate=N/A speed=  41x    frame=20324 fps=984 q=-0.0 size=N/A time=00:14:07.68 bitrate=N/A speed=41.1x    frame=20881 fps=987 q=-0.0 size=N/A time=00:14:30.91 bitrate=N/A speed=41.2x    frame=21489 fps=992 q=-0.0 size=N/A time=00:14:56.27 bitrate=N/A speed=41.4x    frame=22070 fps=994 q=-0.0 size=N/A time=00:15:20.50 bitrate=N/A speed=41.5x    frame=22625 fps=996 q=-0.0 size=N/A time=00:15:43.65 bitrate=N/A speed=41.6x    frame=23187 fps=998 q=-0.0 size=N/A time=00:16:07.09 bitrate=N/A speed=41.6x    frame=23791 fps=1002 q=-0.0 size=N/A time=00:16:32.28 bitrate=N/A speed=41.8x    frame=24314 fps=1003 q=-0.0 size=N/A time=00:16:54.09 bitrate=N/A speed=41.8x    frame=24933 fps=1007 q=-0.0 size=N/A time=00:17:19.91 bitrate=N/A speed=  42x    frame=25496 fps=1008 q=-0.0 size=N/A time=00:17:43.39 bitrate=N/A speed=  42x    frame=26109 fps=1012 q=-0.0 size=N/A time=00:18:08.96 bitrate=N/A speed=42.2x    frame=26692 fps=1015 q=-0.0 size=N/A time=00:18:33.27 bitrate=N/A speed=42.3x    frame=27378 fps=1020 q=-0.0 size=N/A time=00:19:01.89 bitrate=N/A speed=42.6x    frame=27966 fps=1023 q=-0.0 size=N/A time=00:19:26.41 bitrate=N/A speed=42.7x    frame=28619 fps=1027 q=-0.0 size=N/A time=00:19:53.65 bitrate=N/A speed=42.8x    frame=29188 fps=1029 q=-0.0 size=N/A time=00:20:17.38 bitrate=N/A speed=42.9x    frame=29807 fps=1031 q=-0.0 size=N/A time=00:20:43.20 bitrate=N/A speed=  43x    frame=30430 fps=1035 q=-0.0 size=N/A time=00:21:09.18 bitrate=N/A speed=43.2x    frame=31075 fps=1038 q=-0.0 size=N/A time=00:21:36.08 bitrate=N/A speed=43.3x    frame=31610 fps=1039 q=-0.0 size=N/A time=00:21:58.40 bitrate=N/A speed=43.3x    frame=32200 fps=1040 q=-0.0 size=N/A time=00:22:23.00 bitrate=N/A speed=43.4x    frame=32705 fps=1039 q=-0.0 size=N/A time=00:22:44.07 bitrate=N/A speed=43.3x    frame=33206 fps=1038 q=-0.0 size=N/A time=00:23:04.96 bitrate=N/A speed=43.3x    frame=33667 fps=1036 q=-0.0 size=N/A time=00:23:24.19 bitrate=N/A speed=43.2x    frame=34187 fps=1035 q=-0.0 size=N/A time=00:23:45.88 bitrate=N/A speed=43.2x    frame=34847 fps=1039 q=-0.0 size=N/A time=00:24:13.41 bitrate=N/A speed=43.3x    [Parsed_psnr_10 @ 000001709bfda200] PSNR y:47.989543 u:51.149097 v:51.110715 average:48.807050 min:36.454217 max:79.039559
[out#0/null @ 000001708fdbef00] video:14989KiB audio:272792KiB subtitle:0KiB other streams:0KiB global headers:0KiB muxing overhead: unknown
frame=34884 fps=1040 q=-0.0 Lsize=N/A time=00:24:14.89 bitrate=N/A speed=43.4x    
